<svg width="21" height="20" viewBox="0 0 21 20" fill="none" xmlns="http://www.w3.org/2000/svg">
<g clip-path="url(#clip0_50_1497)">
<path d="M10.5 0C7.84844 0 5.30312 1.05422 3.42969 2.92891C1.55432 4.80434 0.500519 7.34778 0.5 10C0.5 12.6511 1.55469 15.1964 3.42969 17.0711C5.30312 18.9458 7.84844 20 10.5 20C13.1516 20 15.6969 18.9458 17.5703 17.0711C19.4453 15.1964 20.5 12.6511 20.5 10C20.5 7.34891 19.4453 4.80359 17.5703 2.92891C15.6969 1.05422 13.1516 0 10.5 0Z" fill="#558EFF"/>
<path d="M5.02658 9.89404C7.9422 8.62404 9.88595 7.7867 10.8578 7.38217C13.636 6.22701 14.2125 6.02639 14.5891 6.01959C14.6719 6.01826 14.8563 6.03873 14.9766 6.136C15.0766 6.21803 15.1047 6.32897 15.1188 6.40686C15.1313 6.48467 15.1485 6.66201 15.1344 6.80045C14.9844 8.3817 14.3328 12.2189 14.0016 13.99C13.8625 14.7394 13.586 14.9906 13.3188 15.0151C12.7375 15.0686 12.2969 14.6314 11.7344 14.2628C10.8547 13.6858 10.3578 13.3267 9.50314 12.7637C8.51564 12.1131 9.15626 11.7554 9.71876 11.1711C9.86564 11.0181 12.425 8.69076 12.4735 8.47967C12.4797 8.45326 12.486 8.35482 12.4266 8.30295C12.3688 8.25092 12.2828 8.26873 12.2203 8.28279C12.1313 8.30279 10.7266 9.23217 8.00158 11.0708C7.60314 11.3448 7.2422 11.4784 6.9172 11.4714C6.56095 11.4637 5.87345 11.2695 5.36251 11.1036C4.73751 10.9 4.23908 10.7923 4.28283 10.4465C4.3047 10.2665 4.55314 10.0823 5.02658 9.89404Z" fill="white"/>
</g>
<defs>
<clipPath id="clip0_50_1497">
<rect width="20" height="20" fill="white" transform="translate(0.5)"/>
</clipPath>
</defs>
</svg>
